<svg xmlns="http://www.w3.org/2000/svg" xml:space="preserve" viewBox="0 0 24 24" id="youtube">
  <path fill="#FF7F7F" d="M12 23.427c-1.172 0-2.345-.051-3.509-.152l-5.294-.46A3.48 3.48 0 0 1 0 19.328v-4.75a3.48 3.48 0 0 1 3.197-3.487l5.294-.46a40.513 40.513 0 0 1 7.018 0l5.294.46A3.482 3.482 0 0 1 24 14.578v4.75a3.48 3.48 0 0 1-3.197 3.487l-5.294.46a40.631 40.631 0 0 1-3.509.152zm0-11.948c-1.144 0-2.287.049-3.422.148l-5.294.46A2.488 2.488 0 0 0 1 14.578v4.75c0 1.307.982 2.377 2.284 2.491l5.294.46c2.271.197 4.574.197 6.844 0l5.294-.46A2.487 2.487 0 0 0 23 19.328v-4.75a2.487 2.487 0 0 0-2.284-2.491l-5.294-.46A39.802 39.802 0 0 0 12 11.479z"></path>
  <path fill="#FF7F7F" d="M4.5 20.578a.5.5 0 0 1-.5-.5v-6a.5.5 0 0 1 1 0v6a.5.5 0 0 1-.5.5z"></path>
  <path fill="#FF7F7F" d="M6.5 14.578h-4a.5.5 0 0 1 0-1h4a.5.5 0 0 1 0 1zM4.5 5.578a.5.5 0 0 1-.4-.2l-3-4a.5.5 0 1 1 .8-.6l2.6 3.466L7.1.778a.5.5 0 0 1 .8.6l-3 4a.5.5 0 0 1-.4.2z"></path>
  <path fill="#FF7F7F" d="M4.5 9.578a.5.5 0 0 1-.5-.5v-4a.5.5 0 0 1 1 0v4a.5.5 0 0 1-.5.5zM10 9.578c-1.654 0-3-1.346-3-3v-1c0-1.654 1.346-3 3-3s3 1.346 3 3v1c0 1.655-1.346 3-3 3zm0-6c-1.103 0-2 .897-2 2v1c0 1.103.897 2 2 2s2-.897 2-2v-1c0-1.103-.897-2-2-2zM17 9.578c-1.654 0-3-1.346-3-3v-3.5a.5.5 0 0 1 1 0v3.5c0 1.103.897 2 2 2s2-.897 2-2v-3.5a.5.5 0 0 1 1 0v3.5c0 1.655-1.346 3-3 3z"></path>
  <path fill="#FF7F7F" d="M21.5 9.578c-2.5 0-2.5-2.634-2.5-3.5a.5.5 0 0 1 1 0c0 2.075.6 2.5 1.5 2.5a.5.5 0 0 1 0 1zM9 20.578c-1.103 0-2-.897-2-2v-2.5a.5.5 0 0 1 1 0v2.5c0 .551.449 1 1 1s1-.449 1-1v-2.5a.5.5 0 0 1 1 0v2.5c0 1.104-.897 2-2 2zM12.5 20.578a.5.5 0 0 1-.5-.5v-6a.5.5 0 0 1 1 0v6a.5.5 0 0 1-.5.5zM21 20.578h-1c-1.103 0-2-.897-2-2v-1c0-1.103.897-2 2-2s2 .897 2 2v.5a.5.5 0 0 1-.5.5H19c0 .551.449 1 1 1h1a.5.5 0 0 1 0 1zm-2-3h2c0-.551-.449-1-1-1s-1 .449-1 1z"></path>
  <path fill="#FF7F7F" d="M14.5 20.578c-1.378 0-2.5-1.122-2.5-2.5s1.122-2.5 2.5-2.5 2.5 1.122 2.5 2.5-1.122 2.5-2.5 2.5zm0-4c-.827 0-1.5.673-1.5 1.5s.673 1.5 1.5 1.5 1.5-.673 1.5-1.5-.673-1.5-1.5-1.5z"></path>
</svg>
